<svg width="377" height="497" viewBox="0 0 377 497" fill="none" xmlns="http://www.w3.org/2000/svg">
<mask id="mask0" mask-type="alpha" maskUnits="userSpaceOnUse" x="4" y="227" width="262" height="262">
<rect x="4.5" y="227.5" width="261" height="261" fill="#FF5722" stroke="#FF5722"/>
</mask>
<g mask="url(#mask0)">
<path d="M-134.28 336.719L109.915 627.739" stroke="#FF5722" stroke-width="2"/>
<path d="M-107.52 314.264L136.675 605.284" stroke="#FF5722" stroke-width="2"/>
<path d="M-80.7593 291.809L163.436 582.829" stroke="#FF5722" stroke-width="2"/>
<path d="M-53.9988 269.354L190.196 560.375" stroke="#FF5722" stroke-width="2"/>
<path d="M-27.2383 246.898L216.957 537.919" stroke="#FF5722" stroke-width="2"/>
<path d="M-0.477783 224.444L243.717 515.465" stroke="#FF5722" stroke-width="2"/>
<path d="M26.2827 201.99L270.478 493.01" stroke="#FF5722" stroke-width="2"/>
<path d="M53.0431 179.535L297.238 470.555" stroke="#FF5722" stroke-width="2"/>
<path d="M79.8037 157.081L323.999 448.101" stroke="#FF5722" stroke-width="2"/>
<path d="M106.564 134.626L350.759 425.646" stroke="#FF5722" stroke-width="2"/>
<path d="M133.325 112.172L377.52 403.192" stroke="#FF5722" stroke-width="2"/>
<path d="M160.085 89.7158L404.28 380.736" stroke="#FF5722" stroke-width="2"/>
</g>
<g opacity="0.7">
<mask id="mask1" mask-type="alpha" maskUnits="userSpaceOnUse" x="115" y="0" width="262" height="262">
<rect x="115.5" y="0.5" width="261" height="261" fill="#FF5722" stroke="#FF5722"/>
</mask>
<g mask="url(#mask1)">
<path d="M-23.28 109.719L220.915 400.739" stroke="#FF5722" stroke-width="2"/>
<path d="M3.48022 87.2637L247.675 378.284" stroke="#FF5722" stroke-width="2"/>
<path d="M30.2406 64.8091L274.436 355.829" stroke="#FF5722" stroke-width="2"/>
<path d="M57.0011 42.3545L301.196 333.375" stroke="#FF5722" stroke-width="2"/>
<path d="M83.7617 19.8984L327.957 310.919" stroke="#FF5722" stroke-width="2"/>
<path d="M110.522 -2.55615L354.717 288.464" stroke="#FF5722" stroke-width="2"/>
<path d="M137.282 -25.0103L381.477 266.01" stroke="#FF5722" stroke-width="2"/>
<path d="M164.043 -47.4648L408.238 243.555" stroke="#FF5722" stroke-width="2"/>
<path d="M190.803 -69.9194L434.998 221.101" stroke="#FF5722" stroke-width="2"/>
<path d="M217.564 -92.374L461.759 198.646" stroke="#FF5722" stroke-width="2"/>
<path d="M244.324 -114.829L488.519 176.192" stroke="#FF5722" stroke-width="2"/>
<path d="M271.085 -137.284L515.28 153.736" stroke="#FF5722" stroke-width="2"/>
</g>
</g>
</svg>
